# xmcd
#
# Track frame offsets:
#	150
#	13279
#	25266
#	39418
#	52692
#	65706
#	78476
#	89629
#	101855
#	115933
#	127690
#	140504
#	154680
#	167556
#	180728
#	191464
#	202154
#	215432
#	226554
#	239085
#	253452
#	265031
#	278742
#	292866
#	304189
#	317721
#	327239
#
# Disc length: 4548 seconds
#
# Revision: 1
# Processed by: cddbd v1.5.2PL0 Copyright (c) Steve Scherf et al.
# Submitted via: audiograbber 1.83.01
#
DISCID=8511c21b
DTITLE=Sleepy John Estes - Sleepy John Estes Cd 2
DYEAR=2006
DGENRE=Blues
TTITLE0=Need More Blues
TTITLE1=Jack and Jill Blues
TTITLE2=Poor Man's Friend (TModel)
TTITLE3=Hobo Jungle Blues
TTITLE4=Airplane Blues
TTITLE5=Everybody Oughta Make a Change
TTITLE6=Liquor Store Blues
TTITLE7=Easin' Back to Tennessee
TTITLE8=Fire Department Blues (Marth Hardin)
TTITLE9=Clean Up at Home
TTITLE10=New Someday Baby
TTITLE11=Brownsville Blues
TTITLE12=Special Agent (Railroad Police Blues)
TTITLE13=Mailman Blues
TTITLE14=Time Is Drawing Near
TTITLE15=Mary Come on Home
TTITLE16=Jailhouse Blues
TTITLE17=Tell Me How About It (Mr Tom's Blues)
TTITLE18=Drop Down (I Don't Feel Welcome Here)
TTITLE19=Don't You Want to Know
TTITLE20=You Shouldn't Do That
TTITLE21=When the Saints Go Marching In
TTITLE22=Lawyer Clark Blues
TTITLE23=Little Laura Blues
TTITLE24=Working Man Blues
TTITLE25=Harlem Bound
TTITLE26=Stone Blind
EXTD=
EXTT0=
EXTT1=
EXTT2=
EXTT3=
EXTT4=
EXTT5=
EXTT6=
EXTT7=
EXTT8=
EXTT9=
EXTT10=
EXTT11=
EXTT12=
EXTT13=
EXTT14=
EXTT15=
EXTT16=
EXTT17=
EXTT18=
EXTT19=
EXTT20=
EXTT21=
EXTT22=
EXTT23=
EXTT24=
EXTT25=
EXTT26=
PLAYORDER=
